<svg width="24" height="24" viewBox="0 0 24 24" fill="none" xmlns="http://www.w3.org/2000/svg">
<g clip-path="url(#clip0_45_1228)">
<mask id="mask0_45_1228" style="mask-type:luminance" maskUnits="userSpaceOnUse" x="0" y="0" width="24" height="24">
<path d="M24 0H0V24H24V0Z" fill="white"/>
</mask>
<g mask="url(#mask0_45_1228)">
<path fill-rule="evenodd" clip-rule="evenodd" d="M22 10.1667L20 11.3334V17.1846C20 17.8959 19.6222 18.5538 19.0077 18.9122L13.0077 22.4122C12.385 22.7754 11.615 22.7754 10.9922 22.4122L4.99225 18.9122C4.37781 18.5538 3.99999 17.8959 3.99999 17.1846V11.3334L1.48075 9.8638C0.819243 9.47793 0.819242 8.52212 1.48075 8.13624L10.9922 2.58787C11.615 2.22462 12.385 2.22462 13.0077 2.58787L23.5039 8.71062C23.8111 8.88983 24 9.21873 24 9.57439V15C24 15.5523 23.5523 16 23 16C22.4477 16 22 15.5523 22 15V10.1667ZM5.99999 12.5V17.1846L12 20.6846L18 17.1846V12.5L13.0077 15.4122C12.385 15.7754 11.615 15.7754 10.9922 15.4122L5.99999 12.5ZM20.0307 9.00002L12 4.31543L3.96926 9.00002L12 13.6846L20.0307 9.00002Z" fill="black"/>
</g>
</g>
<defs>
<clipPath id="clip0_45_1228">
<rect width="24" height="24" fill="white"/>
</clipPath>
</defs>
</svg>
