<svg width="24" height="24" viewBox="0 0 24 24" fill="none" xmlns="http://www.w3.org/2000/svg">
<path d="M8.99993 9.99998C9.39046 9.60946 10.0236 9.60946 10.4141 9.99998L11.9999 11.5858L13.5857 9.99998C13.9762 9.60946 14.6094 9.60946 14.9999 9.99998C15.3904 10.3905 15.3904 11.0237 14.9999 11.4142L13.4141 13L14.9999 14.5858C15.3904 14.9763 15.3904 15.6095 14.9999 16C14.6094 16.3905 13.9762 16.3905 13.5857 16L11.9999 14.4142L10.4141 16C10.0236 16.3905 9.39045 16.3905 8.99993 16C8.6094 15.6095 8.6094 14.9763 8.99993 14.5858L10.5857 13L8.99993 11.4142C8.60941 11.0237 8.60941 10.3905 8.99993 9.99998Z" fill="black"/>
<path fill-rule="evenodd" clip-rule="evenodd" d="M4 4.99997H6V3.74997C6 3.19768 6.44772 2.74997 7 2.74997C7.55229 2.74997 8 3.19768 8 3.74997V4.99997H16V3.74997C16 3.19768 16.4477 2.74997 17 2.74997C17.5523 2.74997 18 3.19768 18 3.74997V4.99997H20C21.1046 4.99997 22 5.8954 22 6.99997V19C22 20.1046 21.1046 21 20 21H4C2.89543 21 2 20.1046 2 19V6.99997C2 5.8954 2.89543 4.99997 4 4.99997ZM4 19V6.99997H20V19H4Z" fill="black"/>
</svg>
